<?xml version="1.0" standalone="yes"?>
<svg xmlns="http://www.w3.org/2000/svg" width="243" height="243">
<path style="fill:#121315; stroke:none;" d="M0 0L0 243L243 243L243 0L0 0z"/>
<path style="fill:#757575; stroke:none;" d="M108 39L108 61C110.219 55.7127 110.219 44.2873 108 39z"/>
<path style="fill:#a8a8aa; stroke:none;" d="M109 39C116.4 42.1049 127.993 40 136 40L198 40C190.6 36.895 179.007 39 171 39L109 39z"/>
<path style="fill:#ffffff; stroke:none;" d="M109 40L109 61L175 61L175 113L134 113L134 68C126.716 68.4318 119.305 68 112 68L112 134L183 134L183 169C183 173.449 183.807 179.208 179.772 182.258C176.786 184.514 172.513 183.999 169 184L147 184L147 205L182 205C186.953 205 193.643 205.865 197.682 202.297C202.233 198.278 200 186.528 200 181L200 119C197.284 119.226 194.712 119.272 192 119C192.578 116.353 192.607 114.636 192 112L195 113L195 48C197.114 55.1516 196 63.5732 196 71L196 113L198 113L198 40L109 40z"/>
<path style="fill:#959595; stroke:none;" d="M38 42C43.7073 44.3949 51.846 43 58 43L102 43C96.2927 40.6051 88.154 42 82 42L38 42z"/>
<path style="fill:#6d6f6e; stroke:none;" d="M102 42L102 64C104.219 58.7127 104.219 47.2873 102 42z"/>
<path style="fill:#ffffff; stroke:none;" d="M38 43L38 64L54 64C51.9853 72.3652 50.7313 80.2002 46.7261 88C44.5355 92.266 40.2375 95.5477 38.6034 100C36.0435 106.975 38 117.606 38 125L44 123L44 201L100 201L100 104L63 104C68.804 90.4614 74 79.0513 74 64L102 64L102 43L38 43z"/>
<path style="fill:#feffff; stroke:none;" d="M195 48L195 113C193.521 112.014 193.797 112 192 112C192.181 114.378 192.233 116.628 192 119C194.891 119.572 197.114 119.608 200 119L200 200C207.067 193.921 205 183.479 205 175L205 113L196 113L196 69C196 62.5797 197.497 53.9511 195 48z"/>
<path style="fill:#545557; stroke:none;" d="M109 61C114.951 63.4971 123.58 62 130 62L174 62C168.049 59.5029 159.42 61 153 61L109 61z"/>
<path style="fill:#7e7f81; stroke:none;" d="M174 61L175 62L174 61z"/>
<path style="fill:#47484a; stroke:none;" d="M174 62L174 112C175.769 107.785 175 102.536 175 98L175 75C175 70.7397 175.661 65.9586 174 62z"/>
<path style="fill:#48494b; stroke:none;" d="M38 64C42.4715 65.8763 48.1833 65 53 65C48.5285 63.1237 42.8167 64 38 64z"/>
<path style="fill:#b6b7b9; stroke:none;" d="M53.3333 64.6667C53.2777 64.7223 53.2222 65.7777 53.6667 65.3333C53.7222 65.2778 53.7778 64.2222 53.3333 64.6667z"/>
<path style="fill:#e1e2e4; stroke:none;" d="M74 64L74 68C74.7102 66.2405 74.7102 65.7595 74 64z"/>
<path style="fill:#48494b; stroke:none;" d="M75 64C82.4089 67.1089 93.9754 65 102 65C94.5911 61.8911 83.0245 64 75 64z"/>
<path style="fill:#2f3032; stroke:none;" d="M75 65L75 68C75.6961 66.4463 75.6961 66.5537 75 65z"/>
<path style="fill:#1e1e1e; stroke:none;" d="M135 66L135 112C136.661 108.041 136 103.26 136 99L136 78C136 74.0172 136.552 69.6987 135 66z"/>
<path style="fill:#3b3c3e; stroke:none;" d="M52 67L52 70C52.6961 68.4463 52.6961 68.5537 52 67z"/>
<path style="fill:#a4a5a7; stroke:none;" d="M111 67L111 134C113.189 128.784 112 121.619 112 116L112 83C112 77.9198 112.981 71.7199 111 67z"/>
<path style="fill:#f0f1f3; stroke:none;" d="M112 67C117.587 69.3445 128.022 68.9514 134 68C127.798 65.3974 118.702 67 112 67z"/>
<path style="fill:#d2d2d2; stroke:none;" d="M134 67L134 113C135.552 109.301 135 104.983 135 101L135 80C135 75.7397 135.661 70.9586 134 67z"/>
<path style="fill:#b1b2b4; stroke:none;" d="M74 68L74 71C74.6961 69.4463 74.6961 69.5537 74 68z"/>
<path style="fill:#747577; stroke:none;" d="M52 70L53 71L52 70z"/>
<path style="fill:#dadbdd; stroke:none;" d="M52.3333 71.6667C52.2778 71.7222 52.2222 72.7778 52.6667 72.3333C52.7222 72.2778 52.7778 71.2222 52.3333 71.6667z"/>
<path style="fill:#555658; stroke:none;" d="M74.3333 71.6667C74.2778 71.7222 74.2222 72.7778 74.6667 72.3333C74.7222 72.2778 74.7778 71.2223 74.3333 71.6667z"/>
<path style="fill:#68696b; stroke:none;" d="M51 74L52 75L51 74z"/>
<path style="fill:#c9cacc; stroke:none;" d="M51.3333 75.6667C51.2777 75.7223 51.2222 76.7777 51.6667 76.3333C51.7222 76.2778 51.7778 75.2222 51.3333 75.6667z"/>
<path style="fill:#b4b5b7; stroke:none;" d="M73 75L74 76L73 75z"/>
<path style="fill:#323335; stroke:none;" d="M50 76L50 79C50.6961 77.4463 50.6961 77.5537 50 76z"/>
<path style="fill:#767779; stroke:none;" d="M73 76L74 77L73 76z"/>
<path style="fill:#343537; stroke:none;" d="M73 77L73 80C73.6961 78.4463 73.6961 78.5537 73 77z"/>
<path style="fill:#b2b3b5; stroke:none;" d="M50 79L51 80L50 79M72.3333 79.6667C72.2778 79.7222 72.2222 80.7778 72.6667 80.3333C72.7223 80.2777 72.7777 79.2223 72.3333 79.6667z"/>
<path style="fill:#6e6e6e; stroke:none;" d="M49 81L50 82L49 81z"/>
<path style="fill:#757678; stroke:none;" d="M72 81L73 82L72 81z"/>
<path style="fill:#878787; stroke:none;" d="M48 84L49 85L48 84z"/>
<path style="fill:#848587; stroke:none;" d="M71 84L72 85L71 84z"/>
<path style="fill:#7a7b7d; stroke:none;" d="M47 86L48 87L47 86z"/>
<path style="fill:#afb0b2; stroke:none;" d="M70.3333 86.6667C70.2778 86.7222 70.2222 87.7778 70.6667 87.3333C70.7222 87.2778 70.7778 86.2223 70.3333 86.6667z"/>
<path style="fill:#727375; stroke:none;" d="M46 88L47 89L46 88z"/>
<path style="fill:#565759; stroke:none;" d="M70 88L71 89L70 88z"/>
<path style="fill:#aeafb1; stroke:none;" d="M45 90L46 91L45 90z"/>
<path style="fill:#777978; stroke:none;" d="M69 90L70 91L69 90z"/>
<path style="fill:#454648; stroke:none;" d="M44 91L45 92L44 91z"/>
<path style="fill:#cdced0; stroke:none;" d="M44 92L45 93L44 92z"/>
<path style="fill:#b2b4b3; stroke:none;" d="M68 92L69 93L68 92z"/>
<path style="fill:#98999b; stroke:none;" d="M43 93L44 94L43 93z"/>
<path style="fill:#616362; stroke:none;" d="M68 93L69 94L68 93z"/>
<path style="fill:#5a5b5d; stroke:none;" d="M42 94L43 95L42 94z"/>
<path style="fill:#c8cac9; stroke:none;" d="M67 94L68 95L67 94z"/>
<path style="fill:#434446; stroke:none;" d="M41 95L42 96L41 95z"/>
<path style="fill:#5b5d5c; stroke:none;" d="M67 95L68 96L67 95z"/>
<path style="fill:#707173; stroke:none;" d="M66 97L67 98L66 97z"/>
<path style="fill:#cccdcf; stroke:none;" d="M65 98L66 99L65 98z"/>
<path style="fill:#47484a; stroke:none;" d="M37 99L38 100L37 99z"/>
<path style="fill:#545557; stroke:none;" d="M65 99L66 100L65 99z"/>
<path style="fill:#dadbdd; stroke:none;" d="M37 100L37 125C39.4129 119.25 39.4129 105.75 37 100z"/>
<path style="fill:#c4c5c7; stroke:none;" d="M64 100L65 101L64 100z"/>
<path style="fill:#28292b; stroke:none;" d="M36 101L36 126C38.4129 120.25 38.4129 106.75 36 101z"/>
<path style="fill:#4f5052; stroke:none;" d="M64 101L65 102L64 101z"/>
<path style="fill:#858585; stroke:none;" d="M63 102L64 103L63 102z"/>
<path style="fill:#cfcfd1; stroke:none;" d="M63 103C66.9586 104.661 71.7396 104 76 104L100 104C96.0414 102.339 91.2604 103 87 103L63 103z"/>
<path style="fill:#828282; stroke:none;" d="M100 103L100 202C102.701 195.564 101 185.951 101 179L101 129C101 121.256 103.004 110.159 100 103z"/>
<path style="fill:#6e6e6e; stroke:none;" d="M135 112C139.215 113.769 144.464 113 149 113L175 113C170.785 111.231 165.536 112 161 112L135 112z"/>
<path style="fill:#6a6c6b; stroke:none;" d="M198 112C200.613 113.098 203.165 112.993 206 113C203.387 111.902 200.835 112.007 198 112z"/>
<path style="fill:#e0e2e1; stroke:none;" d="M205 113L205 190C207.189 184.783 206 177.619 206 172L206 133C206 126.846 207.395 118.707 205 113z"/>
<path style="fill:#626262; stroke:none;" d="M42 123L43 124L42 123z"/>
<path style="fill:#a5a5a5; stroke:none;" d="M43 123L43 202C45.2922 196.538 44 188.887 44 183L44 144C44 137.58 45.4972 128.951 43 123z"/>
<path style="fill:#a7a9a8; stroke:none;" d="M65 123L65 182C66.7687 177.785 66 172.536 66 168L66 139C66 133.92 66.9806 127.72 65 123z"/>
<path style="fill:#565857; stroke:none;" d="M66 123C69.6975 124.552 74.0169 124 78 124C74.3025 122.448 69.9832 123 66 123z"/>
<path style="fill:#d0d2d1; stroke:none;" d="M78 123L78 182C79.7687 177.785 79 172.536 79 168L79 139C79 133.92 79.9806 127.72 78 123z"/>
<path style="fill:#6a6a6a; stroke:none;" d="M40 124L41 125L40 124z"/>
<path style="fill:#121315; stroke:none;" d="M66 124L66 181L78 181L78 124L66 124z"/>
<path style="fill:#838486; stroke:none;" d="M37.6667 125.333C37.2222 125.778 38.2778 125.722 38.3333 125.667C38.7778 125.222 37.7222 125.278 37.6667 125.333z"/>
<path style="fill:#767676; stroke:none;" d="M111 134C117.194 136.599 126.314 135 133 135L182 135C175.806 132.401 166.686 134 160 134L111 134z"/>
<path style="fill:#bdbec0; stroke:none;" d="M182 134L182 180C183.552 176.301 183 171.983 183 168L183 147C183 142.74 183.661 137.959 182 134z"/>
<path style="fill:#939393; stroke:none;" d="M105 148L105 170C107.219 164.713 107.219 153.287 105 148z"/>
<path style="fill:#c3c3c5; stroke:none;" d="M106 148C111.951 150.497 120.58 149 127 149L174 149C168.049 146.503 159.42 148 153 148L106 148z"/>
<path style="fill:#575757; stroke:none;" d="M174 148L174 170C176.219 164.713 176.219 153.287 174 148z"/>
<path style="fill:#ffffff; stroke:none;" d="M106 149L106 169L174 169L174 149L106 149z"/>
<path style="fill:#e0e0e2; stroke:none;" d="M106 169C111.951 171.497 120.58 170 127 170L174 170C168.049 167.503 159.42 169 153 169L106 169z"/>
<path style="fill:#313234; stroke:none;" d="M105 170C111.194 172.599 120.314 171 127 171L174 171C167.806 168.401 158.686 170 152 170L105 170z"/>
<path style="fill:#3d3e40; stroke:none;" d="M66 181C69.6975 182.552 74.0168 182 78 182C74.3025 180.448 69.9832 181 66 181z"/>
<path style="fill:#aeaeae; stroke:none;" d="M181 181L182 182L181 181z"/>
<path style="fill:#eeeef0; stroke:none;" d="M66 182C69.6975 183.552 74.0169 183 78 183C74.3025 181.448 69.9832 182 66 182z"/>
<path style="fill:#afafaf; stroke:none;" d="M180 182L181 183L180 182z"/>
<path style="fill:#4e4e50; stroke:none;" d="M147 183C155.367 186.511 168.924 184 178 184C169.633 180.489 156.076 183 147 183z"/>
<path style="fill:#969696; stroke:none;" d="M178 183L179 184L178 183z"/>
<path style="fill:#484848; stroke:none;" d="M146 184L146 205C148.153 199.869 148.153 189.131 146 184z"/>
<path style="fill:#898b8a; stroke:none;" d="M205.333 190.667C205.278 190.722 205.222 191.778 205.667 191.333C205.722 191.278 205.778 190.222 205.333 190.667z"/>
<path style="fill:#37383a; stroke:none;" d="M205.333 192.667C205.278 192.722 205.222 193.778 205.667 193.333C205.722 193.278 205.778 192.222 205.333 192.667z"/>
<path style="fill:#bbbcbe; stroke:none;" d="M204 194L205 195L204 194z"/>
<path style="fill:#565759; stroke:none;" d="M204 195L205 196L204 195z"/>
<path style="fill:#b7b8ba; stroke:none;" d="M203 196L204 197L203 196z"/>
<path style="fill:#424345; stroke:none;" d="M203 197L204 198L203 197z"/>
<path style="fill:#8b8c8e; stroke:none;" d="M202 198L203 199L202 198z"/>
<path style="fill:#a3a4a6; stroke:none;" d="M201 199L202 200L201 199z"/>
<path style="fill:#b1b3b2; stroke:none;" d="M200 200L201 201L200 200z"/>
<path style="fill:#dadadc; stroke:none;" d="M44 201C49.2165 203.189 56.3809 202 62 202L100 202C94.7835 199.811 87.6191 201 82 201L44 201z"/>
<path style="fill:#989898; stroke:none;" d="M199 201L200 202L199 201z"/>
<path style="fill:#28292b; stroke:none;" d="M43 202C48.4625 204.292 56.113 203 62 203L101 203C95.5375 200.708 87.887 202 82 202L43 202z"/>
<path style="fill:#5c5c5c; stroke:none;" d="M198 202L199 203L198 202z"/>
<path style="fill:#a2a2a2; stroke:none;" d="M196 203L197 204L196 203z"/>
<path style="fill:#bfbfbf; stroke:none;" d="M193 204L194 205L193 204z"/>
<path style="fill:#717171; stroke:none;" d="M194 204L195 205L194 204z"/>
<path style="fill:#818284; stroke:none;" d="M147 205C151.469 206.875 157.191 206 162 206L191 206C186.531 204.125 180.809 205 176 205L147 205z"/>
</svg>
